<?xml version="1.0" encoding="utf-8"?>
<svg version="1.1" xmlns:xlink="http://www.w3.org/1999/xlink" width="66px" height="23px" xmlns="http://www.w3.org/2000/svg">
  <defs>
    <mask fill="white" id="clip5">
      <path d="M 0 19.03448275862069  L 0 3.9655172413793105  C 0 1.7448275862067522  1.4376237623762302 0  3.2673267326732676 0  L 62.73267326732673 0  C 64.56237623762374 0  66 1.7448275862067522  66 3.9655172413793105  L 66 19.03448275862069  C 66 21.255172413793247  64.56237623762374 23  62.73267326732673 23  L 49.41831683168317 23  L 3.2673267326732676 23  C 1.4376237623762302 23  0 21.255172413793247  0 19.03448275862069  Z " fill-rule="evenodd" />
    </mask>
  </defs>
  <g transform="matrix(1 0 0 1 -435 -4553 )">
    <path d="M 0 19.03448275862069  L 0 3.9655172413793105  C 0 1.7448275862067522  1.4376237623762302 0  3.2673267326732676 0  L 62.73267326732673 0  C 64.56237623762374 0  66 1.7448275862067522  66 3.9655172413793105  L 66 19.03448275862069  C 66 21.255172413793247  64.56237623762374 23  62.73267326732673 23  L 49.41831683168317 23  L 3.2673267326732676 23  C 1.4376237623762302 23  0 21.255172413793247  0 19.03448275862069  Z " fill-rule="nonzero" fill="#ffffff" stroke="none" transform="matrix(1 0 0 1 435 4553 )" />
    <path d="M 0 19.03448275862069  L 0 3.9655172413793105  C 0 1.7448275862067522  1.4376237623762302 0  3.2673267326732676 0  L 62.73267326732673 0  C 64.56237623762374 0  66 1.7448275862067522  66 3.9655172413793105  L 66 19.03448275862069  C 66 21.255172413793247  64.56237623762374 23  62.73267326732673 23  L 49.41831683168317 23  L 3.2673267326732676 23  C 1.4376237623762302 23  0 21.255172413793247  0 19.03448275862069  Z " stroke-width="2" stroke="#797979" fill="none" transform="matrix(1 0 0 1 435 4553 )" mask="url(#clip5)" />
  </g>
</svg>