<?xml version="1.0" encoding="utf-8"?>
<svg version="1.1" xmlns:xlink="http://www.w3.org/1999/xlink" width="70px" height="23px" xmlns="http://www.w3.org/2000/svg">
  <defs>
    <mask fill="white" id="clip6">
      <path d="M 0 19.03448275862069  L 0 3.9655172413793105  C 0 1.7448275862067522  1.5247524752475168 0  3.4653465346534653 0  L 66.53465346534654 0  C 68.47524752475245 0  70 1.7448275862067522  70 3.9655172413793105  L 70 19.03448275862069  C 70 21.255172413793247  68.47524752475245 23  66.53465346534654 23  L 52.413366336633665 23  L 3.4653465346534653 23  C 1.5247524752475168 23  0 21.255172413793247  0 19.03448275862069  Z " fill-rule="evenodd" />
    </mask>
  </defs>
  <g transform="matrix(1 0 0 1 -798 -4553 )">
    <path d="M 0 19.03448275862069  L 0 3.9655172413793105  C 0 1.7448275862067522  1.5247524752475168 0  3.4653465346534653 0  L 66.53465346534654 0  C 68.47524752475245 0  70 1.7448275862067522  70 3.9655172413793105  L 70 19.03448275862069  C 70 21.255172413793247  68.47524752475245 23  66.53465346534654 23  L 52.413366336633665 23  L 3.4653465346534653 23  C 1.5247524752475168 23  0 21.255172413793247  0 19.03448275862069  Z " fill-rule="nonzero" fill="#ffffff" stroke="none" transform="matrix(1 0 0 1 798 4553 )" />
    <path d="M 0 19.03448275862069  L 0 3.9655172413793105  C 0 1.7448275862067522  1.5247524752475168 0  3.4653465346534653 0  L 66.53465346534654 0  C 68.47524752475245 0  70 1.7448275862067522  70 3.9655172413793105  L 70 19.03448275862069  C 70 21.255172413793247  68.47524752475245 23  66.53465346534654 23  L 52.413366336633665 23  L 3.4653465346534653 23  C 1.5247524752475168 23  0 21.255172413793247  0 19.03448275862069  Z " stroke-width="2" stroke="#797979" fill="none" transform="matrix(1 0 0 1 798 4553 )" mask="url(#clip6)" />
  </g>
</svg>