<?xml version="1.0" encoding="utf-8"?>
<svg version="1.1" xmlns:xlink="http://www.w3.org/1999/xlink" width="13px" height="13px" viewBox="39 4917  13 13" xmlns="http://www.w3.org/2000/svg">
  <path d="M 45.5 4917  C 49.14 4917  52 4919.86  52 4923.5  C 52 4927.14  49.14 4930  45.5 4930  C 41.86 4930  39 4927.14  39 4923.5  C 39 4919.86  41.86 4917  45.5 4917  Z " fill-rule="nonzero" fill="#f0f0f0" stroke="none" />
  <path d="M 45.5 4917.5  C 48.86 4917.5  51.5 4920.14  51.5 4923.5  C 51.5 4926.86  48.86 4929.5  45.5 4929.5  C 42.14 4929.5  39.5 4926.86  39.5 4923.5  C 39.5 4920.14  42.14 4917.5  45.5 4917.5  Z " stroke-width="1" stroke="#797979" fill="none" />
  <path d="M 45.5 4926.75  C 43.68 4926.75  42.25 4925.32  42.25 4923.5  C 42.25 4921.68  43.68 4920.25  45.5 4920.25  C 47.32 4920.25  48.75 4921.68  48.75 4923.5  C 48.75 4925.32  47.32 4926.75  45.5 4926.75  " fill-rule="nonzero" fill="#797979" stroke="none" />
</svg>