<?xml version="1.0" encoding="utf-8"?>
<svg version="1.1" xmlns:xlink="http://www.w3.org/1999/xlink" width="13px" height="13px" viewBox="39 1805  13 13" xmlns="http://www.w3.org/2000/svg">
  <path d="M 45.5 1805  C 49.14 1805  52 1807.86  52 1811.5  C 52 1815.14  49.14 1818  45.5 1818  C 41.86 1818  39 1815.14  39 1811.5  C 39 1807.86  41.86 1805  45.5 1805  Z " fill-rule="nonzero" fill="#f0f0f0" stroke="none" />
  <path d="M 45.5 1805.5  C 48.86 1805.5  51.5 1808.14  51.5 1811.5  C 51.5 1814.86  48.86 1817.5  45.5 1817.5  C 42.14 1817.5  39.5 1814.86  39.5 1811.5  C 39.5 1808.14  42.14 1805.5  45.5 1805.5  Z " stroke-width="1" stroke="#797979" fill="none" />
  <path d="M 45.5 1814.75  C 43.68 1814.75  42.25 1813.32  42.25 1811.5  C 42.25 1809.68  43.68 1808.25  45.5 1808.25  C 47.32 1808.25  48.75 1809.68  48.75 1811.5  C 48.75 1813.32  47.32 1814.75  45.5 1814.75  " fill-rule="nonzero" fill="#797979" stroke="none" />
</svg>