<?xml version="1.0" encoding="utf-8"?>
<svg version="1.1" xmlns:xlink="http://www.w3.org/1999/xlink" width="13px" height="13px" viewBox="39 5690  13 13" xmlns="http://www.w3.org/2000/svg">
  <path d="M 45.5 5690  C 49.14 5690  52 5692.86  52 5696.5  C 52 5700.14  49.14 5703  45.5 5703  C 41.86 5703  39 5700.14  39 5696.5  C 39 5692.86  41.86 5690  45.5 5690  Z " fill-rule="nonzero" fill="#ffffff" stroke="none" />
  <path d="M 45.5 5690.5  C 48.86 5690.5  51.5 5693.14  51.5 5696.5  C 51.5 5699.86  48.86 5702.5  45.5 5702.5  C 42.14 5702.5  39.5 5699.86  39.5 5696.5  C 39.5 5693.14  42.14 5690.5  45.5 5690.5  Z " stroke-width="1" stroke="#797979" fill="none" />
  <path d="M 45.5 5699.75  C 43.68 5699.75  42.25 5698.32  42.25 5696.5  C 42.25 5694.68  43.68 5693.25  45.5 5693.25  C 47.32 5693.25  48.75 5694.68  48.75 5696.5  C 48.75 5698.32  47.32 5699.75  45.5 5699.75  " fill-rule="nonzero" fill="#797979" stroke="none" />
</svg>