<?xml version="1.0" encoding="utf-8"?>
<svg version="1.1" xmlns:xlink="http://www.w3.org/1999/xlink" width="13px" height="13px" viewBox="39 2599  13 13" xmlns="http://www.w3.org/2000/svg">
  <path d="M 45.5 2599  C 49.14 2599  52 2601.86  52 2605.5  C 52 2609.14  49.14 2612  45.5 2612  C 41.86 2612  39 2609.14  39 2605.5  C 39 2601.86  41.86 2599  45.5 2599  Z " fill-rule="nonzero" fill="#f0f0f0" stroke="none" />
  <path d="M 45.5 2599.5  C 48.86 2599.5  51.5 2602.14  51.5 2605.5  C 51.5 2608.86  48.86 2611.5  45.5 2611.5  C 42.14 2611.5  39.5 2608.86  39.5 2605.5  C 39.5 2602.14  42.14 2599.5  45.5 2599.5  Z " stroke-width="1" stroke="#797979" fill="none" />
  <path d="M 45.5 2608.75  C 43.68 2608.75  42.25 2607.32  42.25 2605.5  C 42.25 2603.68  43.68 2602.25  45.5 2602.25  C 47.32 2602.25  48.75 2603.68  48.75 2605.5  C 48.75 2607.32  47.32 2608.75  45.5 2608.75  " fill-rule="nonzero" fill="#797979" stroke="none" />
</svg>