<?xml version="1.0" encoding="utf-8"?>
<svg version="1.1" xmlns:xlink="http://www.w3.org/1999/xlink" width="13px" height="13px" viewBox="39 304  13 13" xmlns="http://www.w3.org/2000/svg">
  <path d="M 45.5 304  C 49.14 304  52 306.86  52 310.5  C 52 314.14  49.14 317  45.5 317  C 41.86 317  39 314.14  39 310.5  C 39 306.86  41.86 304  45.5 304  Z " fill-rule="nonzero" fill="#f0f0f0" stroke="none" />
  <path d="M 45.5 304.5  C 48.86 304.5  51.5 307.14  51.5 310.5  C 51.5 313.86  48.86 316.5  45.5 316.5  C 42.14 316.5  39.5 313.86  39.5 310.5  C 39.5 307.14  42.14 304.5  45.5 304.5  Z " stroke-width="1" stroke="#797979" fill="none" />
  <path d="M 45.5 313.75  C 43.68 313.75  42.25 312.32  42.25 310.5  C 42.25 308.68  43.68 307.25  45.5 307.25  C 47.32 307.25  48.75 308.68  48.75 310.5  C 48.75 312.32  47.32 313.75  45.5 313.75  " fill-rule="nonzero" fill="#797979" stroke="none" />
</svg>