<?xml version="1.0" encoding="utf-8"?>
<svg version="1.1" xmlns:xlink="http://www.w3.org/1999/xlink" width="13px" height="13px" viewBox="39 1247  13 13" xmlns="http://www.w3.org/2000/svg">
  <path d="M 45.5 1247  C 49.14 1247  52 1249.86  52 1253.5  C 52 1257.14  49.14 1260  45.5 1260  C 41.86 1260  39 1257.14  39 1253.5  C 39 1249.86  41.86 1247  45.5 1247  Z " fill-rule="nonzero" fill="#ffffff" stroke="none" />
  <path d="M 45.5 1247.5  C 48.86 1247.5  51.5 1250.14  51.5 1253.5  C 51.5 1256.86  48.86 1259.5  45.5 1259.5  C 42.14 1259.5  39.5 1256.86  39.5 1253.5  C 39.5 1250.14  42.14 1247.5  45.5 1247.5  Z " stroke-width="1" stroke="#797979" fill="none" />
  <path d="M 45.5 1256.75  C 43.68 1256.75  42.25 1255.32  42.25 1253.5  C 42.25 1251.68  43.68 1250.25  45.5 1250.25  C 47.32 1250.25  48.75 1251.68  48.75 1253.5  C 48.75 1255.32  47.32 1256.75  45.5 1256.75  " fill-rule="nonzero" fill="#797979" stroke="none" />
</svg>