<?xml version="1.0" encoding="utf-8"?>
<svg version="1.1" xmlns:xlink="http://www.w3.org/1999/xlink" width="13px" height="13px" viewBox="39 4300  13 13" xmlns="http://www.w3.org/2000/svg">
  <path d="M 45.5 4300  C 49.14 4300  52 4302.86  52 4306.5  C 52 4310.14  49.14 4313  45.5 4313  C 41.86 4313  39 4310.14  39 4306.5  C 39 4302.86  41.86 4300  45.5 4300  Z " fill-rule="nonzero" fill="#f0f0f0" stroke="none" />
  <path d="M 45.5 4300.5  C 48.86 4300.5  51.5 4303.14  51.5 4306.5  C 51.5 4309.86  48.86 4312.5  45.5 4312.5  C 42.14 4312.5  39.5 4309.86  39.5 4306.5  C 39.5 4303.14  42.14 4300.5  45.5 4300.5  Z " stroke-width="1" stroke="#797979" fill="none" />
  <path d="M 45.5 4309.75  C 43.68 4309.75  42.25 4308.32  42.25 4306.5  C 42.25 4304.68  43.68 4303.25  45.5 4303.25  C 47.32 4303.25  48.75 4304.68  48.75 4306.5  C 48.75 4308.32  47.32 4309.75  45.5 4309.75  " fill-rule="nonzero" fill="#797979" stroke="none" />
</svg>