<?xml version="1.0" encoding="utf-8"?>
<svg version="1.1" xmlns:xlink="http://www.w3.org/1999/xlink" width="13px" height="13px" viewBox="39 1983  13 13" xmlns="http://www.w3.org/2000/svg">
  <path d="M 45.5 1983  C 49.14 1983  52 1985.86  52 1989.5  C 52 1993.14  49.14 1996  45.5 1996  C 41.86 1996  39 1993.14  39 1989.5  C 39 1985.86  41.86 1983  45.5 1983  Z " fill-rule="nonzero" fill="#ffffff" stroke="none" />
  <path d="M 45.5 1983.5  C 48.86 1983.5  51.5 1986.14  51.5 1989.5  C 51.5 1992.86  48.86 1995.5  45.5 1995.5  C 42.14 1995.5  39.5 1992.86  39.5 1989.5  C 39.5 1986.14  42.14 1983.5  45.5 1983.5  Z " stroke-width="1" stroke="#797979" fill="none" />
  <path d="M 45.5 1992.75  C 43.68 1992.75  42.25 1991.32  42.25 1989.5  C 42.25 1987.68  43.68 1986.25  45.5 1986.25  C 47.32 1986.25  48.75 1987.68  48.75 1989.5  C 48.75 1991.32  47.32 1992.75  45.5 1992.75  " fill-rule="nonzero" fill="#797979" stroke="none" />
</svg>