<?xml version="1.0" encoding="utf-8"?>
<svg version="1.1" xmlns:xlink="http://www.w3.org/1999/xlink" width="13px" height="13px" viewBox="39 5095  13 13" xmlns="http://www.w3.org/2000/svg">
  <path d="M 45.5 5095  C 49.14 5095  52 5097.86  52 5101.5  C 52 5105.14  49.14 5108  45.5 5108  C 41.86 5108  39 5105.14  39 5101.5  C 39 5097.86  41.86 5095  45.5 5095  Z " fill-rule="nonzero" fill="#f0f0f0" stroke="none" />
  <path d="M 45.5 5095.5  C 48.86 5095.5  51.5 5098.14  51.5 5101.5  C 51.5 5104.86  48.86 5107.5  45.5 5107.5  C 42.14 5107.5  39.5 5104.86  39.5 5101.5  C 39.5 5098.14  42.14 5095.5  45.5 5095.5  Z " stroke-width="1" stroke="#797979" fill="none" />
  <path d="M 45.5 5104.75  C 43.68 5104.75  42.25 5103.32  42.25 5101.5  C 42.25 5099.68  43.68 5098.25  45.5 5098.25  C 47.32 5098.25  48.75 5099.68  48.75 5101.5  C 48.75 5103.32  47.32 5104.75  45.5 5104.75  " fill-rule="nonzero" fill="#797979" stroke="none" />
</svg>