<?xml version="1.0" encoding="utf-8"?>
<svg version="1.1" xmlns:xlink="http://www.w3.org/1999/xlink" width="13px" height="13px" viewBox="39 3523  13 13" xmlns="http://www.w3.org/2000/svg">
  <path d="M 45.5 3523  C 49.14 3523  52 3525.86  52 3529.5  C 52 3533.14  49.14 3536  45.5 3536  C 41.86 3536  39 3533.14  39 3529.5  C 39 3525.86  41.86 3523  45.5 3523  Z " fill-rule="nonzero" fill="#f0f0f0" stroke="none" />
  <path d="M 45.5 3523.5  C 48.86 3523.5  51.5 3526.14  51.5 3529.5  C 51.5 3532.86  48.86 3535.5  45.5 3535.5  C 42.14 3535.5  39.5 3532.86  39.5 3529.5  C 39.5 3526.14  42.14 3523.5  45.5 3523.5  Z " stroke-width="1" stroke="#797979" fill="none" />
  <path d="M 45.5 3532.75  C 43.68 3532.75  42.25 3531.32  42.25 3529.5  C 42.25 3527.68  43.68 3526.25  45.5 3526.25  C 47.32 3526.25  48.75 3527.68  48.75 3529.5  C 48.75 3531.32  47.32 3532.75  45.5 3532.75  " fill-rule="nonzero" fill="#797979" stroke="none" />
</svg>