<?xml version="1.0" encoding="utf-8"?>
<svg version="1.1" xmlns:xlink="http://www.w3.org/1999/xlink" width="13px" height="13px" viewBox="39 2777  13 13" xmlns="http://www.w3.org/2000/svg">
  <path d="M 45.5 2777  C 49.14 2777  52 2779.86  52 2783.5  C 52 2787.14  49.14 2790  45.5 2790  C 41.86 2790  39 2787.14  39 2783.5  C 39 2779.86  41.86 2777  45.5 2777  Z " fill-rule="nonzero" fill="#f0f0f0" stroke="none" />
  <path d="M 45.5 2777.5  C 48.86 2777.5  51.5 2780.14  51.5 2783.5  C 51.5 2786.86  48.86 2789.5  45.5 2789.5  C 42.14 2789.5  39.5 2786.86  39.5 2783.5  C 39.5 2780.14  42.14 2777.5  45.5 2777.5  Z " stroke-width="1" stroke="#797979" fill="none" />
  <path d="M 45.5 2786.75  C 43.68 2786.75  42.25 2785.32  42.25 2783.5  C 42.25 2781.68  43.68 2780.25  45.5 2780.25  C 47.32 2780.25  48.75 2781.68  48.75 2783.5  C 48.75 2785.32  47.32 2786.75  45.5 2786.75  " fill-rule="nonzero" fill="#797979" stroke="none" />
</svg>