<?xml version="1.0" encoding="utf-8"?>
<svg version="1.1" xmlns:xlink="http://www.w3.org/1999/xlink" width="13px" height="13px" viewBox="39 4943  13 13" xmlns="http://www.w3.org/2000/svg">
  <path d="M 45.5 4943  C 49.14 4943  52 4945.86  52 4949.5  C 52 4953.14  49.14 4956  45.5 4956  C 41.86 4956  39 4953.14  39 4949.5  C 39 4945.86  41.86 4943  45.5 4943  Z " fill-rule="nonzero" fill="#ffffff" stroke="none" />
  <path d="M 45.5 4943.5  C 48.86 4943.5  51.5 4946.14  51.5 4949.5  C 51.5 4952.86  48.86 4955.5  45.5 4955.5  C 42.14 4955.5  39.5 4952.86  39.5 4949.5  C 39.5 4946.14  42.14 4943.5  45.5 4943.5  Z " stroke-width="1" stroke="#797979" fill="none" />
  <path d="M 45.5 4952.75  C 43.68 4952.75  42.25 4951.32  42.25 4949.5  C 42.25 4947.68  43.68 4946.25  45.5 4946.25  C 47.32 4946.25  48.75 4947.68  48.75 4949.5  C 48.75 4951.32  47.32 4952.75  45.5 4952.75  " fill-rule="nonzero" fill="#797979" stroke="none" />
</svg>