<?xml version="1.0" encoding="utf-8"?>
<svg version="1.1" xmlns:xlink="http://www.w3.org/1999/xlink" width="13px" height="13px" viewBox="39 330  13 13" xmlns="http://www.w3.org/2000/svg">
  <path d="M 45.5 330  C 49.14 330  52 332.86  52 336.5  C 52 340.14  49.14 343  45.5 343  C 41.86 343  39 340.14  39 336.5  C 39 332.86  41.86 330  45.5 330  Z " fill-rule="nonzero" fill="#f0f0f0" stroke="none" />
  <path d="M 45.5 330.5  C 48.86 330.5  51.5 333.14  51.5 336.5  C 51.5 339.86  48.86 342.5  45.5 342.5  C 42.14 342.5  39.5 339.86  39.5 336.5  C 39.5 333.14  42.14 330.5  45.5 330.5  Z " stroke-width="1" stroke="#797979" fill="none" />
  <path d="M 45.5 339.75  C 43.68 339.75  42.25 338.32  42.25 336.5  C 42.25 334.68  43.68 333.25  45.5 333.25  C 47.32 333.25  48.75 334.68  48.75 336.5  C 48.75 338.32  47.32 339.75  45.5 339.75  " fill-rule="nonzero" fill="#797979" stroke="none" />
</svg>