<?xml version="1.0" encoding="utf-8"?>
<svg version="1.1" xmlns:xlink="http://www.w3.org/1999/xlink" width="13px" height="13px" viewBox="39 5716  13 13" xmlns="http://www.w3.org/2000/svg">
  <path d="M 45.5 5716  C 49.14 5716  52 5718.86  52 5722.5  C 52 5726.14  49.14 5729  45.5 5729  C 41.86 5729  39 5726.14  39 5722.5  C 39 5718.86  41.86 5716  45.5 5716  Z " fill-rule="nonzero" fill="#f0f0f0" stroke="none" />
  <path d="M 45.5 5716.5  C 48.86 5716.5  51.5 5719.14  51.5 5722.5  C 51.5 5725.86  48.86 5728.5  45.5 5728.5  C 42.14 5728.5  39.5 5725.86  39.5 5722.5  C 39.5 5719.14  42.14 5716.5  45.5 5716.5  Z " stroke-width="1" stroke="#797979" fill="none" />
  <path d="M 45.5 5725.75  C 43.68 5725.75  42.25 5724.32  42.25 5722.5  C 42.25 5720.68  43.68 5719.25  45.5 5719.25  C 47.32 5719.25  48.75 5720.68  48.75 5722.5  C 48.75 5724.32  47.32 5725.75  45.5 5725.75  " fill-rule="nonzero" fill="#797979" stroke="none" />
</svg>