<?xml version="1.0" encoding="utf-8"?>
<svg version="1.1" xmlns:xlink="http://www.w3.org/1999/xlink" width="13px" height="13px" viewBox="39 3371  13 13" xmlns="http://www.w3.org/2000/svg">
  <path d="M 45.5 3371  C 49.14 3371  52 3373.86  52 3377.5  C 52 3381.14  49.14 3384  45.5 3384  C 41.86 3384  39 3381.14  39 3377.5  C 39 3373.86  41.86 3371  45.5 3371  Z " fill-rule="nonzero" fill="#f0f0f0" stroke="none" />
  <path d="M 45.5 3371.5  C 48.86 3371.5  51.5 3374.14  51.5 3377.5  C 51.5 3380.86  48.86 3383.5  45.5 3383.5  C 42.14 3383.5  39.5 3380.86  39.5 3377.5  C 39.5 3374.14  42.14 3371.5  45.5 3371.5  Z " stroke-width="1" stroke="#797979" fill="none" />
  <path d="M 45.5 3380.75  C 43.68 3380.75  42.25 3379.32  42.25 3377.5  C 42.25 3375.68  43.68 3374.25  45.5 3374.25  C 47.32 3374.25  48.75 3375.68  48.75 3377.5  C 48.75 3379.32  47.32 3380.75  45.5 3380.75  " fill-rule="nonzero" fill="#797979" stroke="none" />
</svg>