<?xml version="1.0" encoding="utf-8"?>
<svg version="1.1" xmlns:xlink="http://www.w3.org/1999/xlink" width="13px" height="13px" viewBox="39 5046  13 13" xmlns="http://www.w3.org/2000/svg">
  <path d="M 45.5 5046  C 49.14 5046  52 5048.86  52 5052.5  C 52 5056.14  49.14 5059  45.5 5059  C 41.86 5059  39 5056.14  39 5052.5  C 39 5048.86  41.86 5046  45.5 5046  Z " fill-rule="nonzero" fill="#f0f0f0" stroke="none" />
  <path d="M 45.5 5046.5  C 48.86 5046.5  51.5 5049.14  51.5 5052.5  C 51.5 5055.86  48.86 5058.5  45.5 5058.5  C 42.14 5058.5  39.5 5055.86  39.5 5052.5  C 39.5 5049.14  42.14 5046.5  45.5 5046.5  Z " stroke-width="1" stroke="#797979" fill="none" />
  <path d="M 45.5 5055.75  C 43.68 5055.75  42.25 5054.32  42.25 5052.5  C 42.25 5050.68  43.68 5049.25  45.5 5049.25  C 47.32 5049.25  48.75 5050.68  48.75 5052.5  C 48.75 5054.32  47.32 5055.75  45.5 5055.75  " fill-rule="nonzero" fill="#797979" stroke="none" />
</svg>