<?xml version="1.0" encoding="utf-8"?>
<svg version="1.1" xmlns:xlink="http://www.w3.org/1999/xlink" width="13px" height="13px" viewBox="39 1934  13 13" xmlns="http://www.w3.org/2000/svg">
  <path d="M 45.5 1934  C 49.14 1934  52 1936.86  52 1940.5  C 52 1944.14  49.14 1947  45.5 1947  C 41.86 1947  39 1944.14  39 1940.5  C 39 1936.86  41.86 1934  45.5 1934  Z " fill-rule="nonzero" fill="#ffffff" stroke="none" />
  <path d="M 45.5 1934.5  C 48.86 1934.5  51.5 1937.14  51.5 1940.5  C 51.5 1943.86  48.86 1946.5  45.5 1946.5  C 42.14 1946.5  39.5 1943.86  39.5 1940.5  C 39.5 1937.14  42.14 1934.5  45.5 1934.5  Z " stroke-width="1" stroke="#797979" fill="none" />
  <path d="M 45.5 1943.75  C 43.68 1943.75  42.25 1942.32  42.25 1940.5  C 42.25 1938.68  43.68 1937.25  45.5 1937.25  C 47.32 1937.25  48.75 1938.68  48.75 1940.5  C 48.75 1942.32  47.32 1943.75  45.5 1943.75  " fill-rule="nonzero" fill="#797979" stroke="none" />
</svg>