<?xml version="1.0" encoding="utf-8"?>
<svg version="1.1" xmlns:xlink="http://www.w3.org/1999/xlink" width="13px" height="13px" viewBox="39 433  13 13" xmlns="http://www.w3.org/2000/svg">
  <path d="M 45.5 433  C 49.14 433  52 435.86  52 439.5  C 52 443.14  49.14 446  45.5 446  C 41.86 446  39 443.14  39 439.5  C 39 435.86  41.86 433  45.5 433  Z " fill-rule="nonzero" fill="#ffffff" stroke="none" />
  <path d="M 45.5 433.5  C 48.86 433.5  51.5 436.14  51.5 439.5  C 51.5 442.86  48.86 445.5  45.5 445.5  C 42.14 445.5  39.5 442.86  39.5 439.5  C 39.5 436.14  42.14 433.5  45.5 433.5  Z " stroke-width="1" stroke="#797979" fill="none" />
  <path d="M 45.5 442.75  C 43.68 442.75  42.25 441.32  42.25 439.5  C 42.25 437.68  43.68 436.25  45.5 436.25  C 47.32 436.25  48.75 437.68  48.75 439.5  C 48.75 441.32  47.32 442.75  45.5 442.75  " fill-rule="nonzero" fill="#797979" stroke="none" />
</svg>