<?xml version="1.0" encoding="utf-8"?>
<svg version="1.1" xmlns:xlink="http://www.w3.org/1999/xlink" width="13px" height="13px" viewBox="39 4251  13 13" xmlns="http://www.w3.org/2000/svg">
  <path d="M 45.5 4251  C 49.14 4251  52 4253.86  52 4257.5  C 52 4261.14  49.14 4264  45.5 4264  C 41.86 4264  39 4261.14  39 4257.5  C 39 4253.86  41.86 4251  45.5 4251  Z " fill-rule="nonzero" fill="#ffffff" stroke="none" />
  <path d="M 45.5 4251.5  C 48.86 4251.5  51.5 4254.14  51.5 4257.5  C 51.5 4260.86  48.86 4263.5  45.5 4263.5  C 42.14 4263.5  39.5 4260.86  39.5 4257.5  C 39.5 4254.14  42.14 4251.5  45.5 4251.5  Z " stroke-width="1" stroke="#797979" fill="none" />
  <path d="M 45.5 4260.75  C 43.68 4260.75  42.25 4259.32  42.25 4257.5  C 42.25 4255.68  43.68 4254.25  45.5 4254.25  C 47.32 4254.25  48.75 4255.68  48.75 4257.5  C 48.75 4259.32  47.32 4260.75  45.5 4260.75  " fill-rule="nonzero" fill="#797979" stroke="none" />
</svg>