<?xml version="1.0" encoding="utf-8"?>
<svg version="1.1" xmlns:xlink="http://www.w3.org/1999/xlink" width="13px" height="13px" viewBox="39 3474  13 13" xmlns="http://www.w3.org/2000/svg">
  <path d="M 45.5 3474  C 49.14 3474  52 3476.86  52 3480.5  C 52 3484.14  49.14 3487  45.5 3487  C 41.86 3487  39 3484.14  39 3480.5  C 39 3476.86  41.86 3474  45.5 3474  Z " fill-rule="nonzero" fill="#ffffff" stroke="none" />
  <path d="M 45.5 3474.5  C 48.86 3474.5  51.5 3477.14  51.5 3480.5  C 51.5 3483.86  48.86 3486.5  45.5 3486.5  C 42.14 3486.5  39.5 3483.86  39.5 3480.5  C 39.5 3477.14  42.14 3474.5  45.5 3474.5  Z " stroke-width="1" stroke="#797979" fill="none" />
  <path d="M 45.5 3483.75  C 43.68 3483.75  42.25 3482.32  42.25 3480.5  C 42.25 3478.68  43.68 3477.25  45.5 3477.25  C 47.32 3477.25  48.75 3478.68  48.75 3480.5  C 48.75 3482.32  47.32 3483.75  45.5 3483.75  " fill-rule="nonzero" fill="#797979" stroke="none" />
</svg>