<?xml version="1.0" encoding="utf-8"?>
<svg version="1.1" xmlns:xlink="http://www.w3.org/1999/xlink" width="13px" height="13px" viewBox="39 5819  13 13" xmlns="http://www.w3.org/2000/svg">
  <path d="M 45.5 5819  C 49.14 5819  52 5821.86  52 5825.5  C 52 5829.14  49.14 5832  45.5 5832  C 41.86 5832  39 5829.14  39 5825.5  C 39 5821.86  41.86 5819  45.5 5819  Z " fill-rule="nonzero" fill="#ffffff" stroke="none" />
  <path d="M 45.5 5819.5  C 48.86 5819.5  51.5 5822.14  51.5 5825.5  C 51.5 5828.86  48.86 5831.5  45.5 5831.5  C 42.14 5831.5  39.5 5828.86  39.5 5825.5  C 39.5 5822.14  42.14 5819.5  45.5 5819.5  Z " stroke-width="1" stroke="#797979" fill="none" />
  <path d="M 45.5 5828.75  C 43.68 5828.75  42.25 5827.32  42.25 5825.5  C 42.25 5823.68  43.68 5822.25  45.5 5822.25  C 47.32 5822.25  48.75 5823.68  48.75 5825.5  C 48.75 5827.32  47.32 5828.75  45.5 5828.75  " fill-rule="nonzero" fill="#797979" stroke="none" />
</svg>