<?xml version="1.0" encoding="utf-8"?>
<svg version="1.1" xmlns:xlink="http://www.w3.org/1999/xlink" width="13px" height="13px" viewBox="39 1198  13 13" xmlns="http://www.w3.org/2000/svg">
  <path d="M 45.5 1198  C 49.14 1198  52 1200.86  52 1204.5  C 52 1208.14  49.14 1211  45.5 1211  C 41.86 1211  39 1208.14  39 1204.5  C 39 1200.86  41.86 1198  45.5 1198  Z " fill-rule="nonzero" fill="#ffffff" stroke="none" />
  <path d="M 45.5 1198.5  C 48.86 1198.5  51.5 1201.14  51.5 1204.5  C 51.5 1207.86  48.86 1210.5  45.5 1210.5  C 42.14 1210.5  39.5 1207.86  39.5 1204.5  C 39.5 1201.14  42.14 1198.5  45.5 1198.5  Z " stroke-width="1" stroke="#797979" fill="none" />
  <path d="M 45.5 1207.75  C 43.68 1207.75  42.25 1206.32  42.25 1204.5  C 42.25 1202.68  43.68 1201.25  45.5 1201.25  C 47.32 1201.25  48.75 1202.68  48.75 1204.5  C 48.75 1206.32  47.32 1207.75  45.5 1207.75  " fill-rule="nonzero" fill="#797979" stroke="none" />
</svg>