<?xml version="1.0" encoding="utf-8"?>
<svg version="1.1" xmlns:xlink="http://www.w3.org/1999/xlink" width="13px" height="13px" viewBox="39 4277  13 13" xmlns="http://www.w3.org/2000/svg">
  <path d="M 45.5 4277  C 49.14 4277  52 4279.86  52 4283.5  C 52 4287.14  49.14 4290  45.5 4290  C 41.86 4290  39 4287.14  39 4283.5  C 39 4279.86  41.86 4277  45.5 4277  Z " fill-rule="nonzero" fill="#ffffff" stroke="none" />
  <path d="M 45.5 4277.5  C 48.86 4277.5  51.5 4280.14  51.5 4283.5  C 51.5 4286.86  48.86 4289.5  45.5 4289.5  C 42.14 4289.5  39.5 4286.86  39.5 4283.5  C 39.5 4280.14  42.14 4277.5  45.5 4277.5  Z " stroke-width="1" stroke="#797979" fill="none" />
  <path d="M 45.5 4286.75  C 43.68 4286.75  42.25 4285.32  42.25 4283.5  C 42.25 4281.68  43.68 4280.25  45.5 4280.25  C 47.32 4280.25  48.75 4281.68  48.75 4283.5  C 48.75 4285.32  47.32 4286.75  45.5 4286.75  " fill-rule="nonzero" fill="#797979" stroke="none" />
</svg>