<?xml version="1.0" encoding="utf-8"?>
<svg version="1.1" xmlns:xlink="http://www.w3.org/1999/xlink" width="13px" height="13px" viewBox="39 1224  13 13" xmlns="http://www.w3.org/2000/svg">
  <path d="M 45.5 1224  C 49.14 1224  52 1226.86  52 1230.5  C 52 1234.14  49.14 1237  45.5 1237  C 41.86 1237  39 1234.14  39 1230.5  C 39 1226.86  41.86 1224  45.5 1224  Z " fill-rule="nonzero" fill="#f0f0f0" stroke="none" />
  <path d="M 45.5 1224.5  C 48.86 1224.5  51.5 1227.14  51.5 1230.5  C 51.5 1233.86  48.86 1236.5  45.5 1236.5  C 42.14 1236.5  39.5 1233.86  39.5 1230.5  C 39.5 1227.14  42.14 1224.5  45.5 1224.5  Z " stroke-width="1" stroke="#797979" fill="none" />
  <path d="M 45.5 1233.75  C 43.68 1233.75  42.25 1232.32  42.25 1230.5  C 42.25 1228.68  43.68 1227.25  45.5 1227.25  C 47.32 1227.25  48.75 1228.68  48.75 1230.5  C 48.75 1232.32  47.32 1233.75  45.5 1233.75  " fill-rule="nonzero" fill="#797979" stroke="none" />
</svg>