<?xml version="1.0" encoding="utf-8"?>
<svg version="1.1" xmlns:xlink="http://www.w3.org/1999/xlink" width="13px" height="13px" viewBox="39 459  13 13" xmlns="http://www.w3.org/2000/svg">
  <path d="M 45.5 459  C 49.14 459  52 461.86  52 465.5  C 52 469.14  49.14 472  45.5 472  C 41.86 472  39 469.14  39 465.5  C 39 461.86  41.86 459  45.5 459  Z " fill-rule="nonzero" fill="#ffffff" stroke="none" />
  <path d="M 45.5 459.5  C 48.86 459.5  51.5 462.14  51.5 465.5  C 51.5 468.86  48.86 471.5  45.5 471.5  C 42.14 471.5  39.5 468.86  39.5 465.5  C 39.5 462.14  42.14 459.5  45.5 459.5  Z " stroke-width="1" stroke="#797979" fill="none" />
  <path d="M 45.5 468.75  C 43.68 468.75  42.25 467.32  42.25 465.5  C 42.25 463.68  43.68 462.25  45.5 462.25  C 47.32 462.25  48.75 463.68  48.75 465.5  C 48.75 467.32  47.32 468.75  45.5 468.75  " fill-rule="nonzero" fill="#797979" stroke="none" />
</svg>