<?xml version="1.0" encoding="utf-8"?>
<svg version="1.1" xmlns:xlink="http://www.w3.org/1999/xlink" width="13px" height="13px" viewBox="39 2754  13 13" xmlns="http://www.w3.org/2000/svg">
  <path d="M 45.5 2754  C 49.14 2754  52 2756.86  52 2760.5  C 52 2764.14  49.14 2767  45.5 2767  C 41.86 2767  39 2764.14  39 2760.5  C 39 2756.86  41.86 2754  45.5 2754  Z " fill-rule="nonzero" fill="#f0f0f0" stroke="none" />
  <path d="M 45.5 2754.5  C 48.86 2754.5  51.5 2757.14  51.5 2760.5  C 51.5 2763.86  48.86 2766.5  45.5 2766.5  C 42.14 2766.5  39.5 2763.86  39.5 2760.5  C 39.5 2757.14  42.14 2754.5  45.5 2754.5  Z " stroke-width="1" stroke="#797979" fill="none" />
  <path d="M 45.5 2763.75  C 43.68 2763.75  42.25 2762.32  42.25 2760.5  C 42.25 2758.68  43.68 2757.25  45.5 2757.25  C 47.32 2757.25  48.75 2758.68  48.75 2760.5  C 48.75 2762.32  47.32 2763.75  45.5 2763.75  " fill-rule="nonzero" fill="#797979" stroke="none" />
</svg>