<?xml version="1.0" encoding="utf-8"?>
<svg version="1.1" xmlns:xlink="http://www.w3.org/1999/xlink" width="13px" height="13px" viewBox="39 2677  13 13" xmlns="http://www.w3.org/2000/svg">
  <path d="M 45.5 2677  C 49.14 2677  52 2679.86  52 2683.5  C 52 2687.14  49.14 2690  45.5 2690  C 41.86 2690  39 2687.14  39 2683.5  C 39 2679.86  41.86 2677  45.5 2677  Z " fill-rule="nonzero" fill="#ffffff" stroke="none" />
  <path d="M 45.5 2677.5  C 48.86 2677.5  51.5 2680.14  51.5 2683.5  C 51.5 2686.86  48.86 2689.5  45.5 2689.5  C 42.14 2689.5  39.5 2686.86  39.5 2683.5  C 39.5 2680.14  42.14 2677.5  45.5 2677.5  Z " stroke-width="1" stroke="#797979" fill="none" />
  <path d="M 45.5 2686.75  C 43.68 2686.75  42.25 2685.32  42.25 2683.5  C 42.25 2681.68  43.68 2680.25  45.5 2680.25  C 47.32 2680.25  48.75 2681.68  48.75 2683.5  C 48.75 2685.32  47.32 2686.75  45.5 2686.75  " fill-rule="nonzero" fill="#797979" stroke="none" />
</svg>