<?xml version="1.0" encoding="utf-8"?>
<svg version="1.1" xmlns:xlink="http://www.w3.org/1999/xlink" width="13px" height="13px" viewBox="39 4174  13 13" xmlns="http://www.w3.org/2000/svg">
  <path d="M 45.5 4174  C 49.14 4174  52 4176.86  52 4180.5  C 52 4184.14  49.14 4187  45.5 4187  C 41.86 4187  39 4184.14  39 4180.5  C 39 4176.86  41.86 4174  45.5 4174  Z " fill-rule="nonzero" fill="#f0f0f0" stroke="none" />
  <path d="M 45.5 4174.5  C 48.86 4174.5  51.5 4177.14  51.5 4180.5  C 51.5 4183.86  48.86 4186.5  45.5 4186.5  C 42.14 4186.5  39.5 4183.86  39.5 4180.5  C 39.5 4177.14  42.14 4174.5  45.5 4174.5  Z " stroke-width="1" stroke="#797979" fill="none" />
  <path d="M 45.5 4183.75  C 43.68 4183.75  42.25 4182.32  42.25 4180.5  C 42.25 4178.68  43.68 4177.25  45.5 4177.25  C 47.32 4177.25  48.75 4178.68  48.75 4180.5  C 48.75 4182.32  47.32 4183.75  45.5 4183.75  " fill-rule="nonzero" fill="#797979" stroke="none" />
</svg>