<?xml version="1.0" encoding="utf-8"?>
<svg version="1.1" xmlns:xlink="http://www.w3.org/1999/xlink" width="13px" height="13px" viewBox="39 356  13 13" xmlns="http://www.w3.org/2000/svg">
  <path d="M 45.5 356  C 49.14 356  52 358.86  52 362.5  C 52 366.14  49.14 369  45.5 369  C 41.86 369  39 366.14  39 362.5  C 39 358.86  41.86 356  45.5 356  Z " fill-rule="nonzero" fill="#ffffff" stroke="none" />
  <path d="M 45.5 356.5  C 48.86 356.5  51.5 359.14  51.5 362.5  C 51.5 365.86  48.86 368.5  45.5 368.5  C 42.14 368.5  39.5 365.86  39.5 362.5  C 39.5 359.14  42.14 356.5  45.5 356.5  Z " stroke-width="1" stroke="#797979" fill="none" />
  <path d="M 45.5 365.75  C 43.68 365.75  42.25 364.32  42.25 362.5  C 42.25 360.68  43.68 359.25  45.5 359.25  C 47.32 359.25  48.75 360.68  48.75 362.5  C 48.75 364.32  47.32 365.75  45.5 365.75  " fill-rule="nonzero" fill="#797979" stroke="none" />
</svg>