<?xml version="1.0" encoding="utf-8"?>
<svg version="1.1" xmlns:xlink="http://www.w3.org/1999/xlink" width="13px" height="13px" viewBox="39 3423  13 13" xmlns="http://www.w3.org/2000/svg">
  <path d="M 45.5 3423  C 49.14 3423  52 3425.86  52 3429.5  C 52 3433.14  49.14 3436  45.5 3436  C 41.86 3436  39 3433.14  39 3429.5  C 39 3425.86  41.86 3423  45.5 3423  Z " fill-rule="nonzero" fill="#ffffff" stroke="none" />
  <path d="M 45.5 3423.5  C 48.86 3423.5  51.5 3426.14  51.5 3429.5  C 51.5 3432.86  48.86 3435.5  45.5 3435.5  C 42.14 3435.5  39.5 3432.86  39.5 3429.5  C 39.5 3426.14  42.14 3423.5  45.5 3423.5  Z " stroke-width="1" stroke="#797979" fill="none" />
  <path d="M 45.5 3432.75  C 43.68 3432.75  42.25 3431.32  42.25 3429.5  C 42.25 3427.68  43.68 3426.25  45.5 3426.25  C 47.32 3426.25  48.75 3427.68  48.75 3429.5  C 48.75 3431.32  47.32 3432.75  45.5 3432.75  " fill-rule="nonzero" fill="#797979" stroke="none" />
</svg>