<?xml version="1.0" encoding="utf-8"?>
<svg version="1.1" xmlns:xlink="http://www.w3.org/1999/xlink" width="13px" height="13px" viewBox="39 5796  13 13" xmlns="http://www.w3.org/2000/svg">
  <path d="M 45.5 5796  C 49.14 5796  52 5798.86  52 5802.5  C 52 5806.14  49.14 5809  45.5 5809  C 41.86 5809  39 5806.14  39 5802.5  C 39 5798.86  41.86 5796  45.5 5796  Z " fill-rule="nonzero" fill="#f0f0f0" stroke="none" />
  <path d="M 45.5 5796.5  C 48.86 5796.5  51.5 5799.14  51.5 5802.5  C 51.5 5805.86  48.86 5808.5  45.5 5808.5  C 42.14 5808.5  39.5 5805.86  39.5 5802.5  C 39.5 5799.14  42.14 5796.5  45.5 5796.5  Z " stroke-width="1" stroke="#797979" fill="none" />
  <path d="M 45.5 5805.75  C 43.68 5805.75  42.25 5804.32  42.25 5802.5  C 42.25 5800.68  43.68 5799.25  45.5 5799.25  C 47.32 5799.25  48.75 5800.68  48.75 5802.5  C 48.75 5804.32  47.32 5805.75  45.5 5805.75  " fill-rule="nonzero" fill="#797979" stroke="none" />
</svg>