<?xml version="1.0" encoding="utf-8"?>
<svg version="1.1" xmlns:xlink="http://www.w3.org/1999/xlink" width="13px" height="13px" viewBox="39 1121  13 13" xmlns="http://www.w3.org/2000/svg">
  <path d="M 45.5 1121  C 49.14 1121  52 1123.86  52 1127.5  C 52 1131.14  49.14 1134  45.5 1134  C 41.86 1134  39 1131.14  39 1127.5  C 39 1123.86  41.86 1121  45.5 1121  Z " fill-rule="nonzero" fill="#f0f0f0" stroke="none" />
  <path d="M 45.5 1121.5  C 48.86 1121.5  51.5 1124.14  51.5 1127.5  C 51.5 1130.86  48.86 1133.5  45.5 1133.5  C 42.14 1133.5  39.5 1130.86  39.5 1127.5  C 39.5 1124.14  42.14 1121.5  45.5 1121.5  Z " stroke-width="1" stroke="#797979" fill="none" />
  <path d="M 45.5 1130.75  C 43.68 1130.75  42.25 1129.32  42.25 1127.5  C 42.25 1125.68  43.68 1124.25  45.5 1124.25  C 47.32 1124.25  48.75 1125.68  48.75 1127.5  C 48.75 1129.32  47.32 1130.75  45.5 1130.75  " fill-rule="nonzero" fill="#797979" stroke="none" />
</svg>