<?xml version="1.0" encoding="utf-8"?>
<svg version="1.1" xmlns:xlink="http://www.w3.org/1999/xlink" width="13px" height="13px" viewBox="39 1147  13 13" xmlns="http://www.w3.org/2000/svg">
  <path d="M 45.5 1147  C 49.14 1147  52 1149.86  52 1153.5  C 52 1157.14  49.14 1160  45.5 1160  C 41.86 1160  39 1157.14  39 1153.5  C 39 1149.86  41.86 1147  45.5 1147  Z " fill-rule="nonzero" fill="#ffffff" stroke="none" />
  <path d="M 45.5 1147.5  C 48.86 1147.5  51.5 1150.14  51.5 1153.5  C 51.5 1156.86  48.86 1159.5  45.5 1159.5  C 42.14 1159.5  39.5 1156.86  39.5 1153.5  C 39.5 1150.14  42.14 1147.5  45.5 1147.5  Z " stroke-width="1" stroke="#797979" fill="none" />
  <path d="M 45.5 1156.75  C 43.68 1156.75  42.25 1155.32  42.25 1153.5  C 42.25 1151.68  43.68 1150.25  45.5 1150.25  C 47.32 1150.25  48.75 1151.68  48.75 1153.5  C 48.75 1155.32  47.32 1156.75  45.5 1156.75  " fill-rule="nonzero" fill="#797979" stroke="none" />
</svg>