<?xml version="1.0" encoding="utf-8"?>
<svg version="1.1" xmlns:xlink="http://www.w3.org/1999/xlink" width="13px" height="13px" viewBox="39 3397  13 13" xmlns="http://www.w3.org/2000/svg">
  <path d="M 45.5 3397  C 49.14 3397  52 3399.86  52 3403.5  C 52 3407.14  49.14 3410  45.5 3410  C 41.86 3410  39 3407.14  39 3403.5  C 39 3399.86  41.86 3397  45.5 3397  Z " fill-rule="nonzero" fill="#f0f0f0" stroke="none" />
  <path d="M 45.5 3397.5  C 48.86 3397.5  51.5 3400.14  51.5 3403.5  C 51.5 3406.86  48.86 3409.5  45.5 3409.5  C 42.14 3409.5  39.5 3406.86  39.5 3403.5  C 39.5 3400.14  42.14 3397.5  45.5 3397.5  Z " stroke-width="1" stroke="#797979" fill="none" />
  <path d="M 45.5 3406.75  C 43.68 3406.75  42.25 3405.32  42.25 3403.5  C 42.25 3401.68  43.68 3400.25  45.5 3400.25  C 47.32 3400.25  48.75 3401.68  48.75 3403.5  C 48.75 3405.32  47.32 3406.75  45.5 3406.75  " fill-rule="nonzero" fill="#797979" stroke="none" />
</svg>