<?xml version="1.0" encoding="utf-8"?>
<svg version="1.1" xmlns:xlink="http://www.w3.org/1999/xlink" width="13px" height="13px" viewBox="39 5768  13 13" xmlns="http://www.w3.org/2000/svg">
  <path d="M 45.5 5768  C 49.14 5768  52 5770.86  52 5774.5  C 52 5778.14  49.14 5781  45.5 5781  C 41.86 5781  39 5778.14  39 5774.5  C 39 5770.86  41.86 5768  45.5 5768  Z " fill-rule="nonzero" fill="#ffffff" stroke="none" />
  <path d="M 45.5 5768.5  C 48.86 5768.5  51.5 5771.14  51.5 5774.5  C 51.5 5777.86  48.86 5780.5  45.5 5780.5  C 42.14 5780.5  39.5 5777.86  39.5 5774.5  C 39.5 5771.14  42.14 5768.5  45.5 5768.5  Z " stroke-width="1" stroke="#797979" fill="none" />
  <path d="M 45.5 5777.75  C 43.68 5777.75  42.25 5776.32  42.25 5774.5  C 42.25 5772.68  43.68 5771.25  45.5 5771.25  C 47.32 5771.25  48.75 5772.68  48.75 5774.5  C 48.75 5776.32  47.32 5777.75  45.5 5777.75  " fill-rule="nonzero" fill="#797979" stroke="none" />
</svg>