<?xml version="1.0" encoding="utf-8"?>
<svg version="1.1" xmlns:xlink="http://www.w3.org/1999/xlink" width="13px" height="13px" viewBox="39 1911  13 13" xmlns="http://www.w3.org/2000/svg">
  <path d="M 45.5 1911  C 49.14 1911  52 1913.86  52 1917.5  C 52 1921.14  49.14 1924  45.5 1924  C 41.86 1924  39 1921.14  39 1917.5  C 39 1913.86  41.86 1911  45.5 1911  Z " fill-rule="nonzero" fill="#ffffff" stroke="none" />
  <path d="M 45.5 1911.5  C 48.86 1911.5  51.5 1914.14  51.5 1917.5  C 51.5 1920.86  48.86 1923.5  45.5 1923.5  C 42.14 1923.5  39.5 1920.86  39.5 1917.5  C 39.5 1914.14  42.14 1911.5  45.5 1911.5  Z " stroke-width="1" stroke="#797979" fill="none" />
  <path d="M 45.5 1920.75  C 43.68 1920.75  42.25 1919.32  42.25 1917.5  C 42.25 1915.68  43.68 1914.25  45.5 1914.25  C 47.32 1914.25  48.75 1915.68  48.75 1917.5  C 48.75 1919.32  47.32 1920.75  45.5 1920.75  " fill-rule="nonzero" fill="#797979" stroke="none" />
</svg>