<?xml version="1.0" encoding="utf-8"?>
<svg version="1.1" xmlns:xlink="http://www.w3.org/1999/xlink" width="13px" height="13px" viewBox="39 5023  13 13" xmlns="http://www.w3.org/2000/svg">
  <path d="M 45.5 5023  C 49.14 5023  52 5025.86  52 5029.5  C 52 5033.14  49.14 5036  45.5 5036  C 41.86 5036  39 5033.14  39 5029.5  C 39 5025.86  41.86 5023  45.5 5023  Z " fill-rule="nonzero" fill="#f0f0f0" stroke="none" />
  <path d="M 45.5 5023.5  C 48.86 5023.5  51.5 5026.14  51.5 5029.5  C 51.5 5032.86  48.86 5035.5  45.5 5035.5  C 42.14 5035.5  39.5 5032.86  39.5 5029.5  C 39.5 5026.14  42.14 5023.5  45.5 5023.5  Z " stroke-width="1" stroke="#797979" fill="none" />
  <path d="M 45.5 5032.75  C 43.68 5032.75  42.25 5031.32  42.25 5029.5  C 42.25 5027.68  43.68 5026.25  45.5 5026.25  C 47.32 5026.25  48.75 5027.68  48.75 5029.5  C 48.75 5031.32  47.32 5032.75  45.5 5032.75  " fill-rule="nonzero" fill="#797979" stroke="none" />
</svg>