<?xml version="1.0" encoding="utf-8"?>
<svg version="1.1" xmlns:xlink="http://www.w3.org/1999/xlink" width="13px" height="13px" viewBox="39 5742  13 13" xmlns="http://www.w3.org/2000/svg">
  <path d="M 45.5 5742  C 49.14 5742  52 5744.86  52 5748.5  C 52 5752.14  49.14 5755  45.5 5755  C 41.86 5755  39 5752.14  39 5748.5  C 39 5744.86  41.86 5742  45.5 5742  Z " fill-rule="nonzero" fill="#ffffff" stroke="none" />
  <path d="M 45.5 5742.5  C 48.86 5742.5  51.5 5745.14  51.5 5748.5  C 51.5 5751.86  48.86 5754.5  45.5 5754.5  C 42.14 5754.5  39.5 5751.86  39.5 5748.5  C 39.5 5745.14  42.14 5742.5  45.5 5742.5  Z " stroke-width="1" stroke="#797979" fill="none" />
  <path d="M 45.5 5751.75  C 43.68 5751.75  42.25 5750.32  42.25 5748.5  C 42.25 5746.68  43.68 5745.25  45.5 5745.25  C 47.32 5745.25  48.75 5746.68  48.75 5748.5  C 48.75 5750.32  47.32 5751.75  45.5 5751.75  " fill-rule="nonzero" fill="#797979" stroke="none" />
</svg>