<?xml version="1.0" encoding="utf-8"?>
<svg version="1.1" xmlns:xlink="http://www.w3.org/1999/xlink" width="13px" height="13px" viewBox="39 2705  13 13" xmlns="http://www.w3.org/2000/svg">
  <path d="M 45.5 2705  C 49.14 2705  52 2707.86  52 2711.5  C 52 2715.14  49.14 2718  45.5 2718  C 41.86 2718  39 2715.14  39 2711.5  C 39 2707.86  41.86 2705  45.5 2705  Z " fill-rule="nonzero" fill="#ffffff" stroke="none" />
  <path d="M 45.5 2705.5  C 48.86 2705.5  51.5 2708.14  51.5 2711.5  C 51.5 2714.86  48.86 2717.5  45.5 2717.5  C 42.14 2717.5  39.5 2714.86  39.5 2711.5  C 39.5 2708.14  42.14 2705.5  45.5 2705.5  Z " stroke-width="1" stroke="#797979" fill="none" />
  <path d="M 45.5 2714.75  C 43.68 2714.75  42.25 2713.32  42.25 2711.5  C 42.25 2709.68  43.68 2708.25  45.5 2708.25  C 47.32 2708.25  48.75 2709.68  48.75 2711.5  C 48.75 2713.32  47.32 2714.75  45.5 2714.75  " fill-rule="nonzero" fill="#797979" stroke="none" />
</svg>