<?xml version="1.0" encoding="utf-8"?>
<svg version="1.1" xmlns:xlink="http://www.w3.org/1999/xlink" width="13px" height="13px" viewBox="39 1883  13 13" xmlns="http://www.w3.org/2000/svg">
  <path d="M 45.5 1883  C 49.14 1883  52 1885.86  52 1889.5  C 52 1893.14  49.14 1896  45.5 1896  C 41.86 1896  39 1893.14  39 1889.5  C 39 1885.86  41.86 1883  45.5 1883  Z " fill-rule="nonzero" fill="#f0f0f0" stroke="none" />
  <path d="M 45.5 1883.5  C 48.86 1883.5  51.5 1886.14  51.5 1889.5  C 51.5 1892.86  48.86 1895.5  45.5 1895.5  C 42.14 1895.5  39.5 1892.86  39.5 1889.5  C 39.5 1886.14  42.14 1883.5  45.5 1883.5  Z " stroke-width="1" stroke="#797979" fill="none" />
  <path d="M 45.5 1892.75  C 43.68 1892.75  42.25 1891.32  42.25 1889.5  C 42.25 1887.68  43.68 1886.25  45.5 1886.25  C 47.32 1886.25  48.75 1887.68  48.75 1889.5  C 48.75 1891.32  47.32 1892.75  45.5 1892.75  " fill-rule="nonzero" fill="#797979" stroke="none" />
</svg>