<?xml version="1.0" encoding="utf-8"?>
<svg version="1.1" xmlns:xlink="http://www.w3.org/1999/xlink" width="13px" height="13px" viewBox="39 1857  13 13" xmlns="http://www.w3.org/2000/svg">
  <path d="M 45.5 1857  C 49.14 1857  52 1859.86  52 1863.5  C 52 1867.14  49.14 1870  45.5 1870  C 41.86 1870  39 1867.14  39 1863.5  C 39 1859.86  41.86 1857  45.5 1857  Z " fill-rule="nonzero" fill="#ffffff" stroke="none" />
  <path d="M 45.5 1857.5  C 48.86 1857.5  51.5 1860.14  51.5 1863.5  C 51.5 1866.86  48.86 1869.5  45.5 1869.5  C 42.14 1869.5  39.5 1866.86  39.5 1863.5  C 39.5 1860.14  42.14 1857.5  45.5 1857.5  Z " stroke-width="1" stroke="#797979" fill="none" />
  <path d="M 45.5 1866.75  C 43.68 1866.75  42.25 1865.32  42.25 1863.5  C 42.25 1861.68  43.68 1860.25  45.5 1860.25  C 47.32 1860.25  48.75 1861.68  48.75 1863.5  C 48.75 1865.32  47.32 1866.75  45.5 1866.75  " fill-rule="nonzero" fill="#797979" stroke="none" />
</svg>