<?xml version="1.0" encoding="utf-8"?>
<svg version="1.1" xmlns:xlink="http://www.w3.org/1999/xlink" width="13px" height="13px" viewBox="39 2651  13 13" xmlns="http://www.w3.org/2000/svg">
  <path d="M 45.5 2651  C 49.14 2651  52 2653.86  52 2657.5  C 52 2661.14  49.14 2664  45.5 2664  C 41.86 2664  39 2661.14  39 2657.5  C 39 2653.86  41.86 2651  45.5 2651  Z " fill-rule="nonzero" fill="#f0f0f0" stroke="none" />
  <path d="M 45.5 2651.5  C 48.86 2651.5  51.5 2654.14  51.5 2657.5  C 51.5 2660.86  48.86 2663.5  45.5 2663.5  C 42.14 2663.5  39.5 2660.86  39.5 2657.5  C 39.5 2654.14  42.14 2651.5  45.5 2651.5  Z " stroke-width="1" stroke="#797979" fill="none" />
  <path d="M 45.5 2660.75  C 43.68 2660.75  42.25 2659.32  42.25 2657.5  C 42.25 2655.68  43.68 2654.25  45.5 2654.25  C 47.32 2654.25  48.75 2655.68  48.75 2657.5  C 48.75 2659.32  47.32 2660.75  45.5 2660.75  " fill-rule="nonzero" fill="#797979" stroke="none" />
</svg>