<?xml version="1.0" encoding="utf-8"?>
<svg version="1.1" xmlns:xlink="http://www.w3.org/1999/xlink" width="13px" height="13px" viewBox="39 410  13 13" xmlns="http://www.w3.org/2000/svg">
  <path d="M 45.5 410  C 49.14 410  52 412.86  52 416.5  C 52 420.14  49.14 423  45.5 423  C 41.86 423  39 420.14  39 416.5  C 39 412.86  41.86 410  45.5 410  Z " fill-rule="nonzero" fill="#ffffff" stroke="none" />
  <path d="M 45.5 410.5  C 48.86 410.5  51.5 413.14  51.5 416.5  C 51.5 419.86  48.86 422.5  45.5 422.5  C 42.14 422.5  39.5 419.86  39.5 416.5  C 39.5 413.14  42.14 410.5  45.5 410.5  Z " stroke-width="1" stroke="#797979" fill="none" />
  <path d="M 45.5 419.75  C 43.68 419.75  42.25 418.32  42.25 416.5  C 42.25 414.68  43.68 413.25  45.5 413.25  C 47.32 413.25  48.75 414.68  48.75 416.5  C 48.75 418.32  47.32 419.75  45.5 419.75  " fill-rule="nonzero" fill="#797979" stroke="none" />
</svg>