<?xml version="1.0" encoding="utf-8"?>
<svg version="1.1" xmlns:xlink="http://www.w3.org/1999/xlink" width="13px" height="13px" viewBox="39 4969  13 13" xmlns="http://www.w3.org/2000/svg">
  <path d="M 45.5 4969  C 49.14 4969  52 4971.86  52 4975.5  C 52 4979.14  49.14 4982  45.5 4982  C 41.86 4982  39 4979.14  39 4975.5  C 39 4971.86  41.86 4969  45.5 4969  Z " fill-rule="nonzero" fill="#ffffff" stroke="none" />
  <path d="M 45.5 4969.5  C 48.86 4969.5  51.5 4972.14  51.5 4975.5  C 51.5 4978.86  48.86 4981.5  45.5 4981.5  C 42.14 4981.5  39.5 4978.86  39.5 4975.5  C 39.5 4972.14  42.14 4969.5  45.5 4969.5  Z " stroke-width="1" stroke="#797979" fill="none" />
  <path d="M 45.5 4978.75  C 43.68 4978.75  42.25 4977.32  42.25 4975.5  C 42.25 4973.68  43.68 4972.25  45.5 4972.25  C 47.32 4972.25  48.75 4973.68  48.75 4975.5  C 48.75 4977.32  47.32 4978.75  45.5 4978.75  " fill-rule="nonzero" fill="#797979" stroke="none" />
</svg>